<mxfile host="app.diagrams.net" modified="2021-08-05T01:58:34.212Z" agent="5.0 (Windows NT 10.0; Win64; x64) AppleWebKit/537.36 (KHTML, like Gecko) Chrome/91.0.4472.106 Safari/537.36" etag="d_qCb8l3_i9eHLxKqrn-" version="14.9.4" type="github">
  <diagram id="DfBd_ZTwXXiuXoGdP0vS" name="Page-1">
    <mxGraphModel dx="1422" dy="762" grid="1" gridSize="10" guides="1" tooltips="1" connect="1" arrows="1" fold="1" page="1" pageScale="1" pageWidth="1600" pageHeight="900" math="0" shadow="0">
      <root>
        <mxCell id="0" />
        <mxCell id="1" parent="0" />
        <mxCell id="SDrxFMft4KO9cTdtDNmC-1" value="" style="shape=image;verticalLabelPosition=bottom;labelBackgroundColor=#ffffff;verticalAlign=top;aspect=fixed;imageAspect=0;image=data:image/png,iVBORw0KGgoAAAANSUhEUgAAAIAAAAAeCAYAAADkUhb4AAAACXBIWXMAAAsTAAALEwEAmpwYAAAABGdBTUEAALGOfPtRkwAAACBjSFJNAAB6JQAAgIMAAPn/AACA6QAAdTAAAOpgAAA6mAAAF2+SX8VGAAAGBElEQVR42mL8//8/wygYuQAggFiwCTIyMpJkCEfCewVWBgYHYFJ6ADTwwocFgh9ooWcUUA/AMj5AADFiKwGITQACCe8F/jMyrgcyHVAMZ2Rs+DSPvxGHHgWg/Hw0PR+AYhNw6RkFtEsAAAHERJEhjIzn0SMfmqoa+BLeF+DQsx+LHgF8ekYB7QBAAJGdAIA5OQFIKeCSB5Yi9aASAlmML/ljPql6RgFtAUAAMZEZ+aBivJ6Qsr9IOR2kh/Hf/wJS9IwC2gOAACIrAfxjYqrHl5OppWcU4AQG1ApLgABiISv3//+fQIxaZmDrnlw9FIAAaADBwARQIxOXd4AYuVQC2b1hkEf+eST/FUL9RzYACCCSE8B/JsZ+BiKGDv7/Z1zwcYHAA2jDbz5xLVOEHgoTQDyaWAMOtfVoCWABWgJAzmUPBkHkO6Albn9KEwBAADGRmPsTgJEfQJzB/xqRGosOpOihMqhHCzTkyMXXJgHJ30fCCYMgATwgwCcZAAQQSQmAiIYfrBs48cMCwQfk6qEB6Mcitn8I1v2g8ElEqqoozjAAAUR0AuBL+khsI+4BrFgiRw8Ni84CtFJhqDZIQdWUIRAHUqMEAAggotoApDTi/v3/3/gZmJOhegpI0UPjgKtHqt8byNAPalfYQ9kHoRGBnsj8obQAtOEJyqkLgfgAgcQZj1RNPoDqm4glgkHmzofSDFCzYe5IQHIfrIGYD20TCUDNWojuboAAIioBgLpwwCKaqJwMjMgFSHoESNFDYwALPGR/fEAKTGJKEfSciJy4GnB01xKgpVshFvesx2KuAlQsAVpqLUTTg9wGO4glIaGbg863h1YjYAAQQEzE5H5GInM/UF0iGXoCaRzxjWiBpIBDjpKShVCJUoClHdJPoHEsAE1kDmS6C5e+BOQGLUAAEUwA0MkeorpwwEbcAaie/STouUDjBNDAgH1sgdR2B6hIdoTiRqRc1YBWojRC1SSijT+AEoE8UuQkYGncOaLleFgCI7fBGAg1cwOW6gwMAAKIhVC37z/2LhTebt9/IhtYNOr2YQOFWFr9jiSacQFLXe6ApbSZgJYgkDNQIFQefZwiECmRHoAmFAckO0D8hyS6NxHJvReQ2iYo4xsAAcRCpW5f4wdIw0+AVD0wPk/CewcmJiZ/WAOK6d8/anYLD0BzcD5SRFHDbAMs9qDzC5Eadg+w6HuApYSaiJa4HLE0OonxM3JCvICtWgAIIBa83T4iG36wVA9s+OUT21gERm4Dkl3zwW0GpLUJwIRUABRvoOIaAeSqgFqNTgEspQQDWsBPIKAPW0L8QMAeqgGAAGLC0/Ajqqv0D5KTP5CqByny+3E1GEHmAc11oJJfP0AjnpY9jiE3lQ0QQEy4un3ENjSQu33E1qUwPaAqg5HAWAGxVcoAAfTcy4+lSxeAVv+i53AFIhISzcZIAAKICUfOI6rhB1TnSIYeeLfvD3ENTAeO5O/ygyCyBQjUswzI/Wso8Ic2AkEN0PdIffiDePrr2Fr+NOspAQQQC7lFGZaZO5L1AC1/QMyaZI6/PxR/kN4KpjbIR/JjA1LEIA8m1UNb7AehdAOOiNyA1CBlgCaSRqhZ/miNxAO0LAEAAoiJfI3/JpKhB6VBB23lX2AYnOADlqK6Hi13fmDAHOEDtWfmY4l85J4HrFeCnHn6ofoC0MxPpKUnAQKICXtO/b+RYOigDeAQqecBFrsWEqHvwAAlAGIS+QIsiQDbIBJ6giggYP4HaPfvAS09CRBALDhSxYT/kMEKATyDRAbIiYAcPcQAULVBRv+XlN0uyOYfxNJ1PADNlfx4zJgALdZBud8eKQIfQsVxJeACqF4QrY+kDzbZ9AFHTwZb24CQvzciJSa4uQABhHNfADCyCoAt8H7crTmGDR/nCQSiRTBJeqCLS/cz4B45fABqaH6g/UzhiAOweAcIICY8xe4EaIsd60AF47//F0ERSIYeeAnxD5LycUX+gdHIpz0ACCCidgZBB2NgEfWAmDqZWD3QROTwn4nRH5wy//1/CEyVGwao3h9xJQBAADGObg4d2QAgwAB6rWCjOQVgAwAAAABJRU5ErkJggg==;" parent="1" vertex="1">
          <mxGeometry x="10" y="10" width="128" height="30" as="geometry" />
        </mxCell>
        <mxCell id="ZLqeTAWjGX3nUdcm80Tn-9" value="node 0" style="verticalLabelPosition=bottom;verticalAlign=top;html=1;shape=mxgraph.infographic.shadedCube;isoAngle=15;fillColor=#10739E;strokeColor=none;fontStyle=1;fontColor=#10739E;fontSize=12;shadow=0;" vertex="1" parent="1">
          <mxGeometry x="280" y="140" width="40" height="80" as="geometry" />
        </mxCell>
        <mxCell id="ZLqeTAWjGX3nUdcm80Tn-10" value="node 1" style="verticalLabelPosition=bottom;verticalAlign=top;html=1;shape=mxgraph.infographic.shadedCube;isoAngle=15;fillColor=#F2931E;strokeColor=none;fontStyle=1;fontColor=#F2931E;fontSize=12;shadow=0;" vertex="1" parent="1">
          <mxGeometry x="330" y="120" width="40" height="100" as="geometry" />
        </mxCell>
        <mxCell id="ZLqeTAWjGX3nUdcm80Tn-11" value="node2" style="verticalLabelPosition=bottom;verticalAlign=top;html=1;shape=mxgraph.infographic.shadedCube;isoAngle=15;fillColor=#AE4132;strokeColor=none;fontStyle=1;fontColor=#AE4132;fontSize=12;shadow=0;" vertex="1" parent="1">
          <mxGeometry x="380" y="130" width="40" height="90" as="geometry" />
        </mxCell>
        <mxCell id="ZLqeTAWjGX3nUdcm80Tn-16" value="&lt;font color=&quot;#3399ff&quot;&gt;80&lt;/font&gt;" style="text;html=1;align=center;verticalAlign=middle;resizable=0;points=[];autosize=1;strokeColor=none;" vertex="1" parent="1">
          <mxGeometry x="285" y="110" width="30" height="20" as="geometry" />
        </mxCell>
        <mxCell id="ZLqeTAWjGX3nUdcm80Tn-17" value="&lt;p style=&quot;line-height: 100%&quot;&gt;&lt;font color=&quot;#ff8000&quot;&gt;100&lt;/font&gt;&lt;/p&gt;" style="text;html=1;align=center;verticalAlign=middle;resizable=0;points=[];autosize=1;strokeColor=none;" vertex="1" parent="1">
          <mxGeometry x="330" y="80" width="40" height="40" as="geometry" />
        </mxCell>
        <mxCell id="ZLqeTAWjGX3nUdcm80Tn-18" value="&lt;font color=&quot;#99004d&quot;&gt;90&lt;/font&gt;" style="text;html=1;align=center;verticalAlign=middle;resizable=0;points=[];autosize=1;strokeColor=none;" vertex="1" parent="1">
          <mxGeometry x="385" y="100" width="30" height="20" as="geometry" />
        </mxCell>
        <mxCell id="ZLqeTAWjGX3nUdcm80Tn-19" value="node 0" style="verticalLabelPosition=bottom;verticalAlign=top;html=1;shape=mxgraph.infographic.shadedCube;isoAngle=15;fillColor=#10739E;strokeColor=none;fontStyle=1;fontColor=#10739E;fontSize=12;shadow=0;" vertex="1" parent="1">
          <mxGeometry x="620" y="140" width="40" height="80" as="geometry" />
        </mxCell>
        <mxCell id="ZLqeTAWjGX3nUdcm80Tn-20" value="node 1" style="verticalLabelPosition=bottom;verticalAlign=top;html=1;shape=mxgraph.infographic.shadedCube;isoAngle=15;fillColor=#F2931E;strokeColor=none;fontStyle=1;fontColor=#F2931E;fontSize=12;shadow=0;" vertex="1" parent="1">
          <mxGeometry x="670" y="120" width="40" height="100" as="geometry" />
        </mxCell>
        <mxCell id="ZLqeTAWjGX3nUdcm80Tn-21" value="node2" style="verticalLabelPosition=bottom;verticalAlign=top;html=1;shape=mxgraph.infographic.shadedCube;isoAngle=15;fillColor=#AE4132;strokeColor=none;fontStyle=1;fontColor=#AE4132;fontSize=12;shadow=0;" vertex="1" parent="1">
          <mxGeometry x="720" y="130" width="40" height="90" as="geometry" />
        </mxCell>
        <mxCell id="ZLqeTAWjGX3nUdcm80Tn-22" value="&lt;font color=&quot;#3399ff&quot;&gt;80 + &lt;/font&gt;&lt;font color=&quot;#ff8000&quot;&gt;20&lt;/font&gt;" style="text;html=1;align=center;verticalAlign=middle;resizable=0;points=[];autosize=1;strokeColor=none;" vertex="1" parent="1">
          <mxGeometry x="610" y="91" width="60" height="20" as="geometry" />
        </mxCell>
        <mxCell id="ZLqeTAWjGX3nUdcm80Tn-23" value="&lt;p style=&quot;line-height: 100%&quot;&gt;&lt;font color=&quot;#ff8000&quot;&gt;100&lt;/font&gt;&lt;/p&gt;" style="text;html=1;align=center;verticalAlign=middle;resizable=0;points=[];autosize=1;strokeColor=none;" vertex="1" parent="1">
          <mxGeometry x="670" y="80" width="40" height="40" as="geometry" />
        </mxCell>
        <mxCell id="ZLqeTAWjGX3nUdcm80Tn-24" value="&lt;font color=&quot;#99004d&quot;&gt;90&lt;/font&gt;" style="text;html=1;align=center;verticalAlign=middle;resizable=0;points=[];autosize=1;strokeColor=none;" vertex="1" parent="1">
          <mxGeometry x="725" y="100" width="30" height="20" as="geometry" />
        </mxCell>
        <mxCell id="ZLqeTAWjGX3nUdcm80Tn-25" value="&lt;font style=&quot;line-height: 100% ; font-size: 14px&quot; color=&quot;#ff8000&quot;&gt;&lt;b style=&quot;background-color: rgb(255 , 255 , 255)&quot;&gt;ok&lt;/b&gt;&lt;/font&gt;" style="text;html=1;align=center;verticalAlign=middle;resizable=0;points=[];autosize=1;strokeColor=none;" vertex="1" parent="1">
          <mxGeometry x="335" y="165" width="30" height="20" as="geometry" />
        </mxCell>
        <mxCell id="ZLqeTAWjGX3nUdcm80Tn-26" value="&lt;font style=&quot;line-height: 100% ; font-size: 14px&quot; color=&quot;#99004d&quot;&gt;&lt;b style=&quot;background-color: rgb(255 , 255 , 255)&quot;&gt;ok&lt;/b&gt;&lt;/font&gt;" style="text;html=1;align=center;verticalAlign=middle;resizable=0;points=[];autosize=1;strokeColor=none;" vertex="1" parent="1">
          <mxGeometry x="385" y="165" width="30" height="20" as="geometry" />
        </mxCell>
        <mxCell id="ZLqeTAWjGX3nUdcm80Tn-28" value="node 0" style="verticalLabelPosition=bottom;verticalAlign=top;html=1;shape=mxgraph.infographic.shadedCube;isoAngle=15;fillColor=#10739E;strokeColor=none;fontStyle=1;fontColor=#10739E;fontSize=12;shadow=0;" vertex="1" parent="1">
          <mxGeometry x="280" y="350" width="40" height="80" as="geometry" />
        </mxCell>
        <mxCell id="ZLqeTAWjGX3nUdcm80Tn-29" value="node 1" style="verticalLabelPosition=bottom;verticalAlign=top;html=1;shape=mxgraph.infographic.shadedCube;isoAngle=15;fillColor=#F2931E;strokeColor=none;fontStyle=1;fontColor=#F2931E;fontSize=12;shadow=0;" vertex="1" parent="1">
          <mxGeometry x="330" y="330" width="40" height="100" as="geometry" />
        </mxCell>
        <mxCell id="ZLqeTAWjGX3nUdcm80Tn-30" value="node2" style="verticalLabelPosition=bottom;verticalAlign=top;html=1;shape=mxgraph.infographic.shadedCube;isoAngle=15;fillColor=#AE4132;strokeColor=none;fontStyle=1;fontColor=#AE4132;fontSize=12;shadow=0;" vertex="1" parent="1">
          <mxGeometry x="380" y="340" width="40" height="90" as="geometry" />
        </mxCell>
        <mxCell id="ZLqeTAWjGX3nUdcm80Tn-31" value="&lt;font color=&quot;#3399ff&quot;&gt;80&lt;/font&gt;" style="text;html=1;align=center;verticalAlign=middle;resizable=0;points=[];autosize=1;strokeColor=none;" vertex="1" parent="1">
          <mxGeometry x="285" y="320" width="30" height="20" as="geometry" />
        </mxCell>
        <mxCell id="ZLqeTAWjGX3nUdcm80Tn-32" value="&lt;p style=&quot;line-height: 100%&quot;&gt;&lt;font color=&quot;#ff8000&quot;&gt;100&lt;/font&gt;&lt;/p&gt;" style="text;html=1;align=center;verticalAlign=middle;resizable=0;points=[];autosize=1;strokeColor=none;" vertex="1" parent="1">
          <mxGeometry x="330" y="290" width="40" height="40" as="geometry" />
        </mxCell>
        <mxCell id="ZLqeTAWjGX3nUdcm80Tn-33" value="&lt;font color=&quot;#99004d&quot;&gt;90&lt;/font&gt;" style="text;html=1;align=center;verticalAlign=middle;resizable=0;points=[];autosize=1;strokeColor=none;" vertex="1" parent="1">
          <mxGeometry x="385" y="310" width="30" height="20" as="geometry" />
        </mxCell>
        <mxCell id="ZLqeTAWjGX3nUdcm80Tn-34" value="&lt;font color=&quot;#ffffff&quot;&gt;&lt;span style=&quot;font-size: 14px ; background-color: rgb(0 , 0 , 0)&quot;&gt;&lt;b&gt;failed&lt;/b&gt;&lt;/span&gt;&lt;/font&gt;" style="text;html=1;align=center;verticalAlign=middle;resizable=0;points=[];autosize=1;strokeColor=none;" vertex="1" parent="1">
          <mxGeometry x="325" y="375" width="50" height="20" as="geometry" />
        </mxCell>
        <mxCell id="ZLqeTAWjGX3nUdcm80Tn-35" value="&lt;font style=&quot;line-height: 100% ; font-size: 14px&quot; color=&quot;#99004d&quot;&gt;&lt;b style=&quot;background-color: rgb(255 , 255 , 255)&quot;&gt;ok&lt;/b&gt;&lt;/font&gt;" style="text;html=1;align=center;verticalAlign=middle;resizable=0;points=[];autosize=1;strokeColor=none;" vertex="1" parent="1">
          <mxGeometry x="385" y="375" width="30" height="20" as="geometry" />
        </mxCell>
        <mxCell id="ZLqeTAWjGX3nUdcm80Tn-37" value="node 0" style="verticalLabelPosition=bottom;verticalAlign=top;html=1;shape=mxgraph.infographic.shadedCube;isoAngle=15;fillColor=#10739E;strokeColor=none;fontStyle=1;fontColor=#10739E;fontSize=12;shadow=0;" vertex="1" parent="1">
          <mxGeometry x="620" y="350" width="40" height="80" as="geometry" />
        </mxCell>
        <mxCell id="ZLqeTAWjGX3nUdcm80Tn-38" value="node 1" style="verticalLabelPosition=bottom;verticalAlign=top;html=1;shape=mxgraph.infographic.shadedCube;isoAngle=15;fillColor=#F2931E;strokeColor=none;fontStyle=1;fontColor=#F2931E;fontSize=12;shadow=0;" vertex="1" parent="1">
          <mxGeometry x="670" y="330" width="40" height="100" as="geometry" />
        </mxCell>
        <mxCell id="ZLqeTAWjGX3nUdcm80Tn-39" value="node2" style="verticalLabelPosition=bottom;verticalAlign=top;html=1;shape=mxgraph.infographic.shadedCube;isoAngle=15;fillColor=#AE4132;strokeColor=none;fontStyle=1;fontColor=#AE4132;fontSize=12;shadow=0;" vertex="1" parent="1">
          <mxGeometry x="720" y="340" width="40" height="90" as="geometry" />
        </mxCell>
        <mxCell id="ZLqeTAWjGX3nUdcm80Tn-40" value="&lt;font color=&quot;#3399ff&quot;&gt;80 + &lt;/font&gt;&lt;font color=&quot;#99004d&quot;&gt;10&lt;/font&gt;" style="text;html=1;align=center;verticalAlign=middle;resizable=0;points=[];autosize=1;strokeColor=none;" vertex="1" parent="1">
          <mxGeometry x="610" y="310" width="60" height="20" as="geometry" />
        </mxCell>
        <mxCell id="ZLqeTAWjGX3nUdcm80Tn-41" value="&lt;p style=&quot;line-height: 100%&quot;&gt;&lt;font color=&quot;#ff8000&quot;&gt;100&lt;/font&gt;&lt;/p&gt;" style="text;html=1;align=center;verticalAlign=middle;resizable=0;points=[];autosize=1;strokeColor=none;" vertex="1" parent="1">
          <mxGeometry x="670" y="290" width="40" height="40" as="geometry" />
        </mxCell>
        <mxCell id="ZLqeTAWjGX3nUdcm80Tn-42" value="&lt;font color=&quot;#99004d&quot;&gt;90&lt;/font&gt;" style="text;html=1;align=center;verticalAlign=middle;resizable=0;points=[];autosize=1;strokeColor=none;" vertex="1" parent="1">
          <mxGeometry x="725" y="310" width="30" height="20" as="geometry" />
        </mxCell>
        <mxCell id="ZLqeTAWjGX3nUdcm80Tn-45" value="" style="verticalLabelPosition=bottom;aspect=fixed;html=1;verticalAlign=top;strokeColor=none;align=center;outlineConnect=0;shape=mxgraph.citrix.command_center;fillColor=none;" vertex="1" parent="1">
          <mxGeometry x="960" y="244" width="75.5" height="96" as="geometry" />
        </mxCell>
        <mxCell id="ZLqeTAWjGX3nUdcm80Tn-50" value="" style="verticalLabelPosition=bottom;aspect=fixed;html=1;verticalAlign=top;strokeColor=none;align=center;outlineConnect=0;shape=mxgraph.citrix.router;fillColor=none;" vertex="1" parent="1">
          <mxGeometry x="1225" y="151.75" width="55" height="36.5" as="geometry" />
        </mxCell>
        <mxCell id="ZLqeTAWjGX3nUdcm80Tn-51" value="" style="verticalLabelPosition=bottom;aspect=fixed;html=1;verticalAlign=top;strokeColor=none;align=center;outlineConnect=0;shape=mxgraph.citrix.router;fillColor=none;" vertex="1" parent="1">
          <mxGeometry x="1225" y="389.75" width="55" height="36.5" as="geometry" />
        </mxCell>
        <mxCell id="ZLqeTAWjGX3nUdcm80Tn-46" value="" style="verticalLabelPosition=bottom;aspect=fixed;html=1;verticalAlign=top;strokeColor=none;align=center;outlineConnect=0;shape=mxgraph.citrix.command_center;fillColor=none;" vertex="1" parent="1">
          <mxGeometry x="1160" y="120" width="75.5" height="96" as="geometry" />
        </mxCell>
        <mxCell id="ZLqeTAWjGX3nUdcm80Tn-47" value="" style="verticalLabelPosition=bottom;aspect=fixed;html=1;verticalAlign=top;strokeColor=none;align=center;outlineConnect=0;shape=mxgraph.citrix.command_center;fillColor=none;" vertex="1" parent="1">
          <mxGeometry x="1161" y="360" width="75.5" height="96" as="geometry" />
        </mxCell>
        <mxCell id="ZLqeTAWjGX3nUdcm80Tn-52" value="node 1" style="verticalLabelPosition=bottom;verticalAlign=top;html=1;shape=mxgraph.infographic.shadedCube;isoAngle=15;fillColor=#F2931E;strokeColor=none;fontStyle=1;fontColor=#F2931E;fontSize=12;shadow=0;noLabel=1;" vertex="1" parent="1">
          <mxGeometry x="620" y="120" width="40" height="45" as="geometry" />
        </mxCell>
        <mxCell id="ZLqeTAWjGX3nUdcm80Tn-53" value="node2" style="verticalLabelPosition=bottom;verticalAlign=top;html=1;shape=mxgraph.infographic.shadedCube;isoAngle=15;fillColor=#AE4132;strokeColor=none;fontStyle=1;fontColor=#AE4132;fontSize=12;shadow=0;noLabel=1;" vertex="1" parent="1">
          <mxGeometry x="620" y="340" width="40" height="29" as="geometry" />
        </mxCell>
        <mxCell id="ZLqeTAWjGX3nUdcm80Tn-54" value="node 0" style="verticalLabelPosition=bottom;verticalAlign=top;html=1;shape=mxgraph.infographic.shadedCube;isoAngle=15;fillColor=#10739E;strokeColor=none;fontStyle=1;fontColor=#10739E;fontSize=12;shadow=0;" vertex="1" parent="1">
          <mxGeometry x="280" y="560" width="40" height="80" as="geometry" />
        </mxCell>
        <mxCell id="ZLqeTAWjGX3nUdcm80Tn-55" value="node 1" style="verticalLabelPosition=bottom;verticalAlign=top;html=1;shape=mxgraph.infographic.shadedCube;isoAngle=15;fillColor=#F2931E;strokeColor=none;fontStyle=1;fontColor=#F2931E;fontSize=12;shadow=0;" vertex="1" parent="1">
          <mxGeometry x="330" y="540" width="40" height="100" as="geometry" />
        </mxCell>
        <mxCell id="ZLqeTAWjGX3nUdcm80Tn-56" value="node2" style="verticalLabelPosition=bottom;verticalAlign=top;html=1;shape=mxgraph.infographic.shadedCube;isoAngle=15;fillColor=#AE4132;strokeColor=none;fontStyle=1;fontColor=#AE4132;fontSize=12;shadow=0;" vertex="1" parent="1">
          <mxGeometry x="380" y="550" width="40" height="90" as="geometry" />
        </mxCell>
        <mxCell id="ZLqeTAWjGX3nUdcm80Tn-57" value="&lt;font color=&quot;#3399ff&quot;&gt;80 + &lt;/font&gt;&lt;font color=&quot;#99004d&quot;&gt;10&lt;/font&gt;" style="text;html=1;align=center;verticalAlign=middle;resizable=0;points=[];autosize=1;strokeColor=none;" vertex="1" parent="1">
          <mxGeometry x="270" y="530" width="60" height="20" as="geometry" />
        </mxCell>
        <mxCell id="ZLqeTAWjGX3nUdcm80Tn-58" value="&lt;font color=&quot;#99004d&quot;&gt;90&lt;/font&gt;" style="text;html=1;align=center;verticalAlign=middle;resizable=0;points=[];autosize=1;strokeColor=none;" vertex="1" parent="1">
          <mxGeometry x="385" y="520" width="30" height="20" as="geometry" />
        </mxCell>
        <mxCell id="ZLqeTAWjGX3nUdcm80Tn-60" value="&lt;font style=&quot;line-height: 100% ; font-size: 14px&quot; color=&quot;#99004d&quot;&gt;&lt;b style=&quot;background-color: rgb(255 , 255 , 255)&quot;&gt;ok&lt;/b&gt;&lt;/font&gt;" style="text;html=1;align=center;verticalAlign=middle;resizable=0;points=[];autosize=1;strokeColor=none;" vertex="1" parent="1">
          <mxGeometry x="385" y="585" width="30" height="20" as="geometry" />
        </mxCell>
        <mxCell id="ZLqeTAWjGX3nUdcm80Tn-61" value="&lt;font style=&quot;line-height: 100% ; font-size: 14px&quot; color=&quot;#99004d&quot;&gt;&lt;b style=&quot;background-color: rgb(255 , 255 , 255)&quot;&gt;ok&lt;/b&gt;&lt;/font&gt;" style="text;html=1;align=center;verticalAlign=middle;resizable=0;points=[];autosize=1;strokeColor=none;" vertex="1" parent="1">
          <mxGeometry x="335" y="585" width="30" height="20" as="geometry" />
        </mxCell>
        <mxCell id="ZLqeTAWjGX3nUdcm80Tn-62" value="&lt;p style=&quot;line-height: 100%&quot;&gt;&lt;font color=&quot;#ff8000&quot;&gt;100&lt;/font&gt;&lt;/p&gt;" style="text;html=1;align=center;verticalAlign=middle;resizable=0;points=[];autosize=1;strokeColor=none;" vertex="1" parent="1">
          <mxGeometry x="330" y="500" width="40" height="40" as="geometry" />
        </mxCell>
        <mxCell id="ZLqeTAWjGX3nUdcm80Tn-63" value="node 0" style="verticalLabelPosition=bottom;verticalAlign=top;html=1;shape=mxgraph.infographic.shadedCube;isoAngle=15;fillColor=#10739E;strokeColor=none;fontStyle=1;fontColor=#10739E;fontSize=12;shadow=0;" vertex="1" parent="1">
          <mxGeometry x="620" y="560" width="40" height="80" as="geometry" />
        </mxCell>
        <mxCell id="ZLqeTAWjGX3nUdcm80Tn-64" value="node 1" style="verticalLabelPosition=bottom;verticalAlign=top;html=1;shape=mxgraph.infographic.shadedCube;isoAngle=15;fillColor=#F2931E;strokeColor=none;fontStyle=1;fontColor=#F2931E;fontSize=12;shadow=0;" vertex="1" parent="1">
          <mxGeometry x="670" y="540" width="40" height="100" as="geometry" />
        </mxCell>
        <mxCell id="ZLqeTAWjGX3nUdcm80Tn-65" value="node2" style="verticalLabelPosition=bottom;verticalAlign=top;html=1;shape=mxgraph.infographic.shadedCube;isoAngle=15;fillColor=#AE4132;strokeColor=none;fontStyle=1;fontColor=#AE4132;fontSize=12;shadow=0;" vertex="1" parent="1">
          <mxGeometry x="720" y="550" width="40" height="90" as="geometry" />
        </mxCell>
        <mxCell id="ZLqeTAWjGX3nUdcm80Tn-66" value="&lt;font color=&quot;#3399ff&quot;&gt;80 + &lt;/font&gt;&lt;font color=&quot;#ff8000&quot;&gt;20&lt;/font&gt;" style="text;html=1;align=center;verticalAlign=middle;resizable=0;points=[];autosize=1;strokeColor=none;" vertex="1" parent="1">
          <mxGeometry x="610" y="520" width="60" height="20" as="geometry" />
        </mxCell>
        <mxCell id="ZLqeTAWjGX3nUdcm80Tn-67" value="&lt;p style=&quot;line-height: 100%&quot;&gt;&lt;font color=&quot;#ff8000&quot;&gt;100&lt;/font&gt;&lt;/p&gt;" style="text;html=1;align=center;verticalAlign=middle;resizable=0;points=[];autosize=1;strokeColor=none;" vertex="1" parent="1">
          <mxGeometry x="670" y="500" width="40" height="40" as="geometry" />
        </mxCell>
        <mxCell id="ZLqeTAWjGX3nUdcm80Tn-68" value="&lt;font color=&quot;#99004d&quot;&gt;90&lt;/font&gt;" style="text;html=1;align=center;verticalAlign=middle;resizable=0;points=[];autosize=1;strokeColor=none;" vertex="1" parent="1">
          <mxGeometry x="725" y="520" width="30" height="20" as="geometry" />
        </mxCell>
        <mxCell id="ZLqeTAWjGX3nUdcm80Tn-70" value="node 1" style="verticalLabelPosition=bottom;verticalAlign=top;html=1;shape=mxgraph.infographic.shadedCube;isoAngle=15;fillColor=#F2931E;strokeColor=none;fontStyle=1;fontColor=#F2931E;fontSize=12;shadow=0;noLabel=1;" vertex="1" parent="1">
          <mxGeometry x="620" y="540" width="40" height="40" as="geometry" />
        </mxCell>
        <mxCell id="ZLqeTAWjGX3nUdcm80Tn-71" value="node2" style="verticalLabelPosition=bottom;verticalAlign=top;html=1;shape=mxgraph.infographic.shadedCube;isoAngle=15;fillColor=#AE4132;strokeColor=none;fontStyle=1;fontColor=#AE4132;fontSize=12;shadow=0;noLabel=1;" vertex="1" parent="1">
          <mxGeometry x="280" y="550.5" width="40" height="29" as="geometry" />
        </mxCell>
        <mxCell id="ZLqeTAWjGX3nUdcm80Tn-75" style="edgeStyle=orthogonalEdgeStyle;rounded=0;orthogonalLoop=1;jettySize=auto;html=1;exitX=0;exitY=0.5;exitDx=0;exitDy=0;" edge="1" parent="1" source="ZLqeTAWjGX3nUdcm80Tn-72">
          <mxGeometry relative="1" as="geometry">
            <mxPoint x="990" y="240" as="targetPoint" />
          </mxGeometry>
        </mxCell>
        <mxCell id="ZLqeTAWjGX3nUdcm80Tn-72" value="" style="whiteSpace=wrap;html=1;aspect=fixed;fillColor=none;strokeColor=none;" vertex="1" parent="1">
          <mxGeometry x="1160" y="120" width="100" height="100" as="geometry" />
        </mxCell>
        <mxCell id="ZLqeTAWjGX3nUdcm80Tn-76" style="edgeStyle=orthogonalEdgeStyle;rounded=0;orthogonalLoop=1;jettySize=auto;html=1;exitX=0;exitY=0.5;exitDx=0;exitDy=0;" edge="1" parent="1" source="ZLqeTAWjGX3nUdcm80Tn-74" target="ZLqeTAWjGX3nUdcm80Tn-45">
          <mxGeometry relative="1" as="geometry">
            <Array as="points">
              <mxPoint x="998" y="408" />
            </Array>
          </mxGeometry>
        </mxCell>
        <mxCell id="ZLqeTAWjGX3nUdcm80Tn-74" value="" style="whiteSpace=wrap;html=1;aspect=fixed;fillColor=none;strokeColor=none;" vertex="1" parent="1">
          <mxGeometry x="1161" y="358" width="100" height="100" as="geometry" />
        </mxCell>
      </root>
    </mxGraphModel>
  </diagram>
</mxfile>
